<svg xmlns="http://www.w3.org/2000/svg" width="956" height="951" fill="none"><path fill="#111827" d="M478 0c263.992 0 478 214.008 478 478 0 172.791-91.685 324.166-229.058 408.136-21.636-8.997-62.423-30.548-87.453-45.634-36.5-22-29-18-67.5-48.5-30.799-24.4-45.833-52.833-49.5-64-2.5-9.333-4.9-32.8 5.5-52 10.4-19.2 37.334-41 49.5-49.5 8.5-7.667 31.511-24.502 50.5-39.5 18.805-14.853 36.667-34.833 42.5-44 4.834-10.333 12.3-36.3 3.5-57.5-8.8-21.2-37-40.833-50-48-15-8.833-54.5-29-92.5-39-47.499-12.5-81.5-25-97.5-32.5S414 345.5 414 338c0-16.5 10-23 16.5-28.5 12.887-10.904 62.823-36.498 88.489-45.998l62-22c3.334-1.667 10.711-3.802 7.511-7.002-4-4-28.5.002-46.011 2.002-13.518 1.544-64 12.833-87.5 19-2 1.333-16.989 3.5-38 11-24.68 8.81-58.666 23.667-72 32-14.666 9.833-35.325 27.171-42.489 41.5-4 8-3.437 30 12 44 21.5 19.498 94.656 49.167 130.989 60.5 21.012 8.5 62.111 21.7 76.511 44.5 14.4 22.8-13.667 50-30.5 61.5-24.333 14-79 42-120 61.5-51.348 24.421-89.5 68-97.5 89-4.952 13-13 24-10.999 56.5C263.91 772.269 269.5 806 285.5 832c22.157 36.005 80.095 86.573 120.052 118.544C175.939 915.632 0 717.363 0 478 0 214.008 214.008 0 478 0Z"/></svg>