<svg width="890" height="1690" viewBox="0 0 890 1690" fill="none" xmlns="http://www.w3.org/2000/svg">
<path d="M447.318 1689.88C517.076 1689.88 573.627 1666.57 573.627 1637.81C573.627 1609.06 517.076 1585.75 447.318 1585.75C377.559 1585.75 321.009 1609.06 321.009 1637.81C321.009 1666.57 377.559 1689.88 447.318 1689.88Z" fill="#DDDDDD"/>
<path d="M531.158 710.347L501.783 1597.35C500.744 1628.7 474.475 1653.28 443.122 1652.24C413.087 1651.25 389.265 1626.94 388.215 1597.35L358.84 710.347H531.158Z" fill="#C6C6C6"/>
<path d="M531.163 710.347L524.484 912.061L501.787 1597.35C500.739 1628.7 474.476 1653.29 443.125 1652.25C420.358 1651.49 401.166 1637.35 392.754 1617.66C397.932 1619.44 403.453 1620.48 409.205 1620.68C440.556 1621.71 466.819 1597.13 467.867 1565.77L489.345 916.938C474.707 918.389 459.908 919.114 445.009 919.114C418.061 919.114 391.485 916.737 365.514 912.062L358.835 710.348H531.163V710.347Z" fill="#ADADAD"/>
<path d="M889.325 444.439C889.325 563.124 843.101 674.708 759.18 758.629C675.259 842.55 563.675 888.758 445.006 888.758C326.321 888.758 214.737 842.55 130.816 758.629C46.8949 674.708 0.671875 563.124 0.671875 444.439C0.671875 325.754 46.8959 214.186 130.816 130.265C214.737 46.344 326.321 0.119995 445.006 0.119995C563.675 0.119995 675.259 46.344 759.18 130.265C843.101 214.186 889.325 325.754 889.325 444.439Z" fill="#E23D3D"/>
<path d="M889.328 444.44C889.328 563.123 843.098 674.704 759.18 758.632C675.263 842.549 563.671 888.76 445.008 888.76C326.325 888.76 214.734 842.55 130.816 758.632C71.3479 699.154 30.7999 625.784 12.2329 545.846C32.0189 589.578 59.7729 629.814 94.7299 664.761C170.931 740.962 272.256 782.92 380.029 782.92C487.782 782.92 589.107 740.961 665.308 664.761C741.519 588.56 783.488 487.235 783.488 379.462C783.488 271.689 741.519 170.384 665.308 94.183C630.361 59.226 590.125 31.472 546.393 11.686C626.341 30.253 699.711 70.791 759.179 130.269C843.098 214.186 889.328 325.757 889.328 444.44Z" fill="#BF3636"/>
<path d="M450.781 71.671V132.189C450.781 142.783 442.466 151.463 431.887 152.028C289.419 159.633 169.644 252.727 122.936 380.938C117.521 395.802 102.172 404.581 86.6401 401.575C68.8571 398.134 57.4701 380.677 61.4131 362.998C99.7401 191.16 248.918 61.118 429.99 51.82C441.31 51.238 450.781 60.336 450.781 71.671Z" fill="#F46D5B"/>
<path d="M427.16 1550.36C416.273 1550.36 407.311 1541.68 407.029 1530.73L400.334 1270.97C400.047 1259.85 408.832 1250.6 419.956 1250.31C420.133 1250.31 420.31 1250.3 420.485 1250.3C431.372 1250.3 440.334 1258.99 440.616 1269.93L447.311 1529.69C447.598 1540.82 438.813 1550.07 427.689 1550.35C427.512 1550.36 427.335 1550.36 427.16 1550.36Z" fill="#D8D6D6"/>
</svg>
